<?xml version="1.0" encoding="utf-8"?>
<!-- Generator: Adobe Illustrator 16.0.0, SVG Export Plug-In . SVG Version: 6.00 Build 0)  -->
<!DOCTYPE svg PUBLIC "-//W3C//DTD SVG 1.1//EN" "http://www.w3.org/Graphics/SVG/1.1/DTD/svg11.dtd">
<svg version="1.1" id="Слой_1" xmlns="http://www.w3.org/2000/svg" xmlns:xlink="http://www.w3.org/1999/xlink" x="0px" y="0px"
	 width="106.535px" height="112.429px" viewBox="0 0 106.535 112.429" enable-background="new 0 0 106.535 112.429"
	 xml:space="preserve">
<g>
	<g>
		<path fill="#FFFFFF" d="M24.478,41.347c0.266,1.523-0.758,2.974-2.281,3.241c-1.521,0.266-2.973-0.755-3.238-2.278
			c-0.268-1.525,0.752-2.976,2.275-3.244C22.757,38.801,24.21,39.82,24.478,41.347z"/>
		<path fill="#FFFFFF" d="M87.378,24.163c0.016-0.196,0.006-0.4-0.068-0.597c-0.078-0.212-0.201-0.396-0.359-0.542
			c-0.908-2.708-5.176-11.654-22.99-17.609c-2.078-0.695-4.438-1.169-6.967-1.451C51.449,0.173,27.371-3.888,6.921,7.21
			C-4.295,13.301-0.208,24.891,7.4,27.547c-1.949,5.167-2.104,10.769-0.404,16.741c-1.572,0.801-2.746,2.49-2.455,5.05
			c0.521,4.542,6.309,11.041,17.082,10.547c0.967-0.046,1.922-0.15,2.836-0.307c7.23-1.264,12.527-6.05,18.041-12.989
			c1.701,1.735,3.688,3.446,5.797,4.603c5.631-0.325,9.367-7.76,9.465-13.466c-1.977-1.128-4.381-1.692-6.809-1.929
			c5.293-5.387,12.723-9.675,19.133-10.795c3.398-0.593,7.902-0.511,10.203,3.183c0.051,0.218,0.158,0.408,0.297,0.572
			c0.201,5.831,0.854,6.981,0.854,6.981s9.736-4.514,12.693-9.417C91.925,24.786,88.923,24.314,87.378,24.163z M69.605,22.246
			c-7.637,1.333-16.586,6.792-22.313,13.407c-4.836,0.082-8.959,1.085-8.959,1.085c-2.998,1.621-1.18,3.272-1.18,3.272
			s1.324,2.042,3.422,4.479c-2.279,2.884-4.508,5.374-6.824,7.358c0.969-2.394,1.369-5.673-0.752-9.387
			c-0.193-0.333-0.615-0.446-0.957-0.264c-0.336,0.198-0.451,0.624-0.262,0.961c2.867,5.013,0.561,9.052-0.801,10.783
			c-2.861,1.869-5.936,2.984-9.486,3.146c-9.311,0.428-13.826-5.046-14.172-8.069c-0.201-1.755,0.734-2.293,1.561-2.437
			C9.3,46.52,9.681,46.304,9.912,45.95c0.229-0.358,0.287-0.797,0.154-1.199c-1.969-6.007-1.895-11.592,0.141-16.665
			c1.803,0.074,3.701-0.339,5.584-1.418c0,0,11.336-19.044,42.215-17.65c1.348-0.687,1.961-1.124,1.855-1.773
			c1.123,0.231,2.215,0.493,3.211,0.828c15.941,5.326,20.141,13.085,21.1,15.521c-0.896,0.634-1.672,1.282-2.348,1.952
			C79.238,22.479,74.97,21.306,69.605,22.246z"/>
	</g>
	<g>
		<path fill="#FFFFFF" d="M82.134,71.122c-0.258-1.527,0.766-2.975,2.291-3.236c1.523-0.264,2.973,0.766,3.234,2.291
			s-0.764,2.973-2.287,3.234C83.845,73.67,82.398,72.645,82.134,71.122z"/>
		<path fill="#FFFFFF" d="M19.181,88.102c-0.014,0.201-0.006,0.403,0.064,0.6c0.078,0.213,0.203,0.396,0.359,0.541
			c0.898,2.711,5.139,11.672,22.936,17.684c2.072,0.701,4.434,1.186,6.963,1.471c5.531,3.811,29.598,7.951,50.078-3.086
			c11.236-6.053,7.186-17.658-0.414-20.341c1.967-5.159,2.141-10.761,0.461-16.737c1.57-0.793,2.75-2.479,2.469-5.037
			c-0.506-4.549-6.275-11.062-17.049-10.602c-0.967,0.042-1.92,0.14-2.836,0.297c-7.236,1.239-12.547,6.006-18.082,12.929
			c-1.695-1.741-3.678-3.458-5.781-4.622c-5.635,0.31-9.393,7.732-9.51,13.437c1.977,1.139,4.375,1.709,6.805,1.954
			c-5.311,5.369-12.756,9.635-19.17,10.73c-3.4,0.582-7.902,0.486-10.189-3.212c-0.049-0.218-0.162-0.409-0.299-0.575
			c-0.182-5.832-0.832-6.986-0.832-6.986s-9.748,4.488-12.719,9.381C14.634,87.465,17.636,87.95,19.181,88.102z M36.949,90.081
			c7.641-1.311,16.605-6.744,22.354-13.339c4.838-0.069,8.963-1.06,8.963-1.06c3.006-1.605,1.189-3.264,1.189-3.264
			s-1.318-2.045-3.406-4.494c2.289-2.877,4.521-5.355,6.846-7.332c-0.973,2.387-1.387,5.67,0.725,9.389
			c0.189,0.332,0.613,0.445,0.953,0.26c0.34-0.188,0.455-0.617,0.264-0.953c-2.852-5.025-0.527-9.059,0.84-10.783
			c2.865-1.857,5.945-2.963,9.49-3.115c9.318-0.398,13.813,5.089,14.148,8.115c0.195,1.756-0.738,2.291-1.566,2.434
			c-0.418,0.057-0.799,0.271-1.031,0.63c-0.232,0.353-0.289,0.792-0.158,1.193c1.947,6.017,1.855,11.601-0.193,16.667
			c-1.801-0.082-3.701,0.327-5.588,1.398c0,0-11.398,19.009-42.27,17.516c-1.354,0.684-1.965,1.117-1.863,1.768
			c-1.125-0.236-2.211-0.501-3.207-0.834c-15.924-5.38-20.102-13.15-21.051-15.588c0.896-0.632,1.676-1.279,2.352-1.948
			C27.316,89.813,31.578,90.999,36.949,90.081z"/>
	</g>
</g>
</svg>
