<?xml version="1.0" encoding="utf-8"?>
<!-- Generator: Adobe Illustrator 16.0.0, SVG Export Plug-In . SVG Version: 6.00 Build 0)  -->
<!DOCTYPE svg PUBLIC "-//W3C//DTD SVG 1.1//EN" "http://www.w3.org/Graphics/SVG/1.1/DTD/svg11.dtd">
<svg version="1.1" id="Слой_1" xmlns="http://www.w3.org/2000/svg" xmlns:xlink="http://www.w3.org/1999/xlink" x="0px" y="0px"
	 width="98.838px" height="58.445px" viewBox="0 0 98.838 58.445" enable-background="new 0 0 98.838 58.445" xml:space="preserve">
<g>
	<g>
		<g>
			<ellipse fill="#FFFFFF" cx="39.942" cy="20.869" rx="1.847" ry="1.969"/>
			<ellipse fill="#FFFFFF" cx="59.298" cy="20.869" rx="1.848" ry="1.969"/>
			<path fill="#FFFFFF" d="M57.049,41.835c0-0.452-0.43-0.817-0.963-0.817c-0.531,0-0.965,0.365-0.965,0.817
				c0,2.595-2.486,4.706-5.541,4.706c-3.056,0-5.543-2.111-5.543-4.706c0-0.452-0.431-0.817-0.964-0.817
				c-0.533,0-0.964,0.365-0.964,0.817c0,3.319,3.021,6.046,6.852,6.315v8.142c0,0.301,0.385,0.544,0.859,0.544
				c0.474,0,0.857-0.243,0.857-0.544v-8.192C54.277,47.646,57.049,45.014,57.049,41.835z"/>
		</g>
		<path fill="#FFFFFF" d="M93.191,3.771C83.342-3.877,74.639,1.84,70.453,5.75c-0.984-0.883-2.111-1.543-3.377-1.945
			c-7.514-2.38-13.734-3.229-16.777-3.229c-0.377,0-0.696,0.016-0.96,0.037c-0.263-0.021-0.586-0.037-0.965-0.037
			c-3.115,0-9.419,0.849-16.932,3.229c-1.196,0.38-2.261,0.998-3.206,1.807C23.995,1.707,15.38-3.782,5.643,3.771
			c-10.119,7.566-5.3,28.371,4.017,26.06c4.017-1.264,4.819-7.777,2.088-9.038c-1.767-0.84-1.445,0.632-1.125,1.892
			c0.319,1.262-3.856,3.363-4.017-2.104c-0.138-4.709,8.806-10.029,16.833,1.811c-1.598,1.402-6.431,5.958-6.23,9.644
			c0.216,3.957,6.418,2.588,7.879-0.916c1.35,5.268,3.517,10.498,6.325,14.865c6.8,10.574,14.208,12.213,17.032,12.422
			c0.038,0.004,0.301,0.037,0.806,0.037c0,0,0.001,0,0.003,0h0.062c0.454,0,0.718-0.033,0.71-0.033
			c2.869-0.213,10.277-1.852,17.078-12.426c2.809-4.367,4.977-9.598,6.324-14.865c1.463,3.504,7.664,4.873,7.879,0.916
			c0.191-3.537-4.258-7.882-6.031-9.466c8.061-12.072,17.096-6.725,16.955-1.988c-0.162,5.467-4.338,3.365-4.016,2.104
			c0.32-1.26,0.645-2.731-1.125-1.892c-2.73,1.261-1.928,7.774,2.09,9.038C98.494,32.142,103.316,11.338,93.191,3.771z
			 M65.631,44.363c-6.318,9.822-13.095,11.338-15.759,11.535c-0.045,0.008-0.238,0.023-0.557,0.023h-0.113
			c-0.32,0-0.513-0.016-0.603-0.025c-2.618-0.195-9.394-1.711-15.713-11.533c-5.874-9.135-8.862-22.729-6.804-30.941
			c0.96-3.836,2.917-6.248,5.812-7.165C39.241,3.927,45.363,3.1,48.373,3.1c0.356,0,0.654,0.012,0.893,0.036l0.073,0.009
			l0.074-0.009C49.65,3.111,49.947,3.1,50.299,3.1c2.938,0,8.977,0.827,16.322,3.157c2.896,0.917,4.854,3.329,5.813,7.165
			C74.492,21.634,71.506,35.228,65.631,44.363z"/>
	</g>
</g>
</svg>
