<?xml version="1.0" encoding="utf-8"?>
<!-- Generator: Adobe Illustrator 16.0.0, SVG Export Plug-In . SVG Version: 6.00 Build 0)  -->
<!DOCTYPE svg PUBLIC "-//W3C//DTD SVG 1.1//EN" "http://www.w3.org/Graphics/SVG/1.1/DTD/svg11.dtd">
<svg version="1.1" id="Слой_1" xmlns="http://www.w3.org/2000/svg" xmlns:xlink="http://www.w3.org/1999/xlink" x="0px" y="0px"
	 width="148.402px" height="93.145px" viewBox="0 0 148.402 93.145" enable-background="new 0 0 148.402 93.145"
	 xml:space="preserve">
<g>
	<polygon fill="#FFFFFF" points="79.482,62.345 68.551,62.345 60.795,81.27 87.236,81.27 	"/>
	<polygon fill="#FFFFFF" points="49.709,93.145 73.457,93.145 74.572,93.145 98.322,93.145 98.322,83.125 49.709,83.125 	"/>
	<g>
		<path fill="#FFFFFF" d="M22.063,75.704c12.088,0,21.889-5.633,22.064-12.619H0C0.174,70.071,9.979,75.704,22.063,75.704z"/>
		<path fill="#FFFFFF" d="M40.435,61.973c-0.507,0-1.002-0.258-1.278-0.723L22.941,33.996L5.686,60.92
			c-0.441,0.691-1.361,0.889-2.052,0.445c-0.69-0.439-0.89-1.359-0.448-2.047l18.557-28.947c0.275-0.435,0.76-0.707,1.271-0.685
			c0.516,0.01,0.99,0.284,1.252,0.726l17.441,29.316c0.418,0.703,0.186,1.617-0.517,2.035
			C40.951,61.908,40.691,61.973,40.435,61.973z"/>
	</g>
	<path fill="#FFFFFF" d="M78.283,6.43V3.897c0-2.15-1.744-3.897-3.896-3.897c-2.155,0-3.897,1.747-3.897,3.897V6.16
		C33.115,32.827,10.002,23.381,10.002,23.381s0,0,0,2.967c18.764,9.848,50.255-5.544,60.488-11.104V60.86h7.793V15.447
		c10.609,5.72,41.578,20.63,60.115,10.901c0-2.967,0-2.967,0-2.967S115.443,32.771,78.283,6.43z"/>
	<g>
		<path fill="#FFFFFF" d="M126.338,75.704c-12.086,0-21.889-5.633-22.064-12.619h44.129
			C148.231,70.071,138.426,75.704,126.338,75.704z"/>
		<path fill="#FFFFFF" d="M107.969,61.973c0.506,0,1.002-0.258,1.275-0.723l16.213-27.254l17.26,26.924
			c0.441,0.691,1.359,0.889,2.049,0.445c0.689-0.439,0.893-1.359,0.449-2.047l-18.553-28.947c-0.279-0.435-0.766-0.707-1.276-0.685
			c-0.515,0.01-0.987,0.284-1.251,0.726l-17.439,29.316c-0.421,0.703-0.188,1.617,0.518,2.035
			C107.449,61.908,107.711,61.973,107.969,61.973z"/>
	</g>
</g>
</svg>
