<?xml version="1.0" encoding="utf-8"?>
<!-- Generator: Adobe Illustrator 16.0.0, SVG Export Plug-In . SVG Version: 6.00 Build 0)  -->
<!DOCTYPE svg PUBLIC "-//W3C//DTD SVG 1.1//EN" "http://www.w3.org/Graphics/SVG/1.1/DTD/svg11.dtd">
<svg version="1.1" id="Слой_1" xmlns="http://www.w3.org/2000/svg" xmlns:xlink="http://www.w3.org/1999/xlink" x="0px" y="0px"
	 width="92.83px" height="118.471px" viewBox="0 0 92.83 118.471" enable-background="new 0 0 92.83 118.471" xml:space="preserve">
<g>
	<polygon fill="#FFFFFF" points="83.633,53.609 88.231,47.459 92.83,41.312 85.207,40.405 77.583,39.495 79.643,44.302 
		1.262,79.747 1.886,81.196 81.504,48.647 	"/>
	<path fill="#FFFFFF" d="M36.151,21.661C24.884,16.216,23.631,8.515,27.102,4.62c3.472-3.896,1.44-5.422-2.159-4.218
		c-11.494,8.379-1.333,23.226,13.003,31.813c12.119,7.257,16.047,18.283,16.973,21.525l12.376-5.324
		C62.794,34.175,47.261,27.032,36.151,21.661z"/>
	<path fill="#FFFFFF" d="M68.424,95.46c-3.789,11.93,0.941,18.131,6.154,18.288c5.215,0.157,4.932,2.683,1.58,4.468
		c-13.986,2.587-17.779-15-14.161-31.313c3.058-13.789-2.249-24.225-3.964-27.125l12.374-5.324
		C77.655,67.513,72.163,83.702,68.424,95.46z"/>
	<path fill="#FFFFFF" d="M0.104,80.248c-0.129-0.3-0.143-0.654-0.008-0.979l23.137-56.288c0.266-0.646,1.002-0.952,1.646-0.686
		c0.644,0.266,0.95,1.001,0.687,1.645L2.885,79.12l57.488,27.133c0.628,0.299,0.897,1.049,0.601,1.681
		c-0.294,0.629-1.049,0.896-1.678,0.603L0.723,80.89C0.434,80.753,0.222,80.522,0.104,80.248z"/>
</g>
</svg>
