<?xml version="1.0" encoding="utf-8"?>
<!-- Generator: Adobe Illustrator 16.0.0, SVG Export Plug-In . SVG Version: 6.00 Build 0)  -->
<!DOCTYPE svg PUBLIC "-//W3C//DTD SVG 1.1//EN" "http://www.w3.org/Graphics/SVG/1.1/DTD/svg11.dtd">
<svg version="1.1" id="Слой_1" xmlns="http://www.w3.org/2000/svg" xmlns:xlink="http://www.w3.org/1999/xlink" x="0px" y="0px"
	 width="108.184px" height="108.298px" viewBox="0 0 108.184 108.298" enable-background="new 0 0 108.184 108.298"
	 xml:space="preserve">
<g>
	<g>
		<path fill="#FFFFFF" d="M52.355,25.807c-0.158,16.379-9.527,30.341-23.795,23.935l-0.775-1.088
			c-0.953-1.33-2.768-1.663-4.051-0.746c-1.286,0.92-1.554,2.745-0.6,4.077L41.332,77.39c0.953,1.333,2.764,1.666,4.049,0.749
			c1.284-0.922,1.552-2.748,0.6-4.074l-0.93-1.304C43.576,57.193,59.808,52.81,75.37,57.938c15.688,5.16,34.991-6.518,32.614-21.443
			c-1.451-9.114-5.274-16.582-8.551-20.42c-2.578-4.336-8.118-9.943-16.281-14.247C69.785-5.228,52.513,9.289,52.355,25.807z"/>
		<path fill="#FFFFFF" d="M49.457,15.365c1.51,1.751,1.865,4.609,0.756,7.364c-1.461,3.624-5.645,7.09-12.635,4.997
			c-3.642-0.718-7.045,0.393-9.111,2.978c-1.551,1.934-1.949,4.255-1.07,6.209c4.299,9.564,12.98,6.421,13.348,6.285
			c1.102-0.413,2.326,0.143,2.74,1.24c0.414,1.102-0.139,2.324-1.238,2.739c-4.406,1.664-13.984,2.023-18.729-8.521
			c-1.521-3.386-0.898-7.454,1.627-10.614c3.055-3.815,8.186-5.528,13.381-4.467l0.195,0.049c5.402,1.656,7.141-1.483,7.546-2.485
			c0.617-1.537,0.294-2.884-0.2-3.139c-1.047-0.53-1.468-1.813-0.936-2.86c0.533-1.044,1.814-1.463,2.86-0.93
			C48.56,14.497,49.052,14.889,49.457,15.365z"/>
	</g>
	<g>
		<path fill="#FFFFFF" d="M28.121,108.298c-1.572,0-3.256-0.241-5.023-0.767c-7.764-2.332-10.055-8.332-8.882-13.245
			c0.973-4.079,4.539-7.753,9.491-6.857c5.621,1.01,7.08,4.44,6.622,7.071c-0.417,2.443-2.313,4.178-4.218,3.857
			c-0.716-0.119-1.201-0.799-1.082-1.517c0.119-0.716,0.789-1.208,1.516-1.081c0.281,0.043,1-0.593,1.193-1.707
			c0.34-1.957-1.342-3.466-4.495-4.032c-3.331-0.599-5.78,1.999-6.468,4.876c-0.822,3.438,0.539,8.149,7.077,10.111
			c6.585,1.979,11.659-0.838,13.767-4.502c1.805-3.141,2.027-8.09-2.762-12.572c-11.046-10.342-4.164-19.65-4.093-19.742
			c0.437-0.579,1.263-0.691,1.841-0.25c0.576,0.438,0.691,1.262,0.254,1.842l0,0c-0.229,0.305-5.467,7.554,3.797,16.228
			c5.911,5.532,5.551,11.794,3.246,15.805C37.857,105.367,33.644,108.298,28.121,108.298z"/>
		<path fill="#FFFFFF" d="M9.183,87.533c-3.531,0-6.368-1.398-7.947-3.979c-1.717-2.807-1.637-6.602,0.188-9.234
			c1.568-2.254,4.1-3.236,6.955-2.676c0.711,0.139,1.178,0.83,1.039,1.543c-0.142,0.713-0.834,1.18-1.546,1.041
			c-2.315-0.452-3.606,0.617-4.288,1.592c-1.23,1.774-1.273,4.447-0.104,6.36c1.313,2.144,3.908,3.073,7.32,2.607
			c11.615-1.571,11.165-14.954,11.143-15.524c-0.033-0.723,0.529-1.336,1.257-1.371c0.731-0.051,1.339,0.533,1.372,1.259
			c0.006,0.163,0.549,16.353-13.42,18.245C10.476,87.488,9.817,87.533,9.183,87.533z"/>
		<path fill="#FFFFFF" d="M45.031,107.591c-0.115,0-0.23-0.002-0.348-0.011c-0.727-0.032-1.287-0.648-1.25-1.379
			c0.037-0.724,0.66-1.281,1.379-1.248c1.896,0.098,4.08-1.066,5.412-2.883c1.568-2.135,1.832-4.922,0.746-7.848
			c-2.586-7.957-8.986-9.012-9.051-9.023c-0.718-0.105-1.213-0.776-1.106-1.496c0.11-0.719,0.787-1.214,1.5-1.102
			c0.327,0.047,8.075,1.324,11.144,10.761c1.383,3.729,0.999,7.392-1.108,10.261C50.562,106.063,47.72,107.591,45.031,107.591z"/>
		<path fill="#FFFFFF" d="M64.323,108.008c-0.632,0-1.277-0.094-1.919-0.288c-3.133-0.948-5.156-3.843-5.156-7.372
			c0-5.379-2.906-7.873-3.029-7.977c-0.556-0.462-0.634-1.292-0.176-1.85c0.458-0.557,1.279-0.64,1.842-0.184
			c0.163,0.13,3.996,3.318,3.996,10.01c0,2.85,1.77,4.395,3.283,4.854c1.721,0.521,3.36-0.091,4.393-1.636
			c1.522-2.285-0.133-3.674-0.674-4.047c-0.838-0.576-1.627-0.578-1.76-0.394c-0.414,0.599-1.236,0.743-1.832,0.327
			c-0.594-0.418-0.74-1.238-0.322-1.834c1.066-1.529,3.389-1.646,5.396-0.271c2.15,1.467,3.5,4.496,1.38,7.678
			C68.469,106.941,66.462,108.008,64.323,108.008z"/>
	</g>
</g>
</svg>
