<?xml version="1.0" encoding="utf-8"?>
<!-- Generator: Adobe Illustrator 16.0.0, SVG Export Plug-In . SVG Version: 6.00 Build 0)  -->
<!DOCTYPE svg PUBLIC "-//W3C//DTD SVG 1.1//EN" "http://www.w3.org/Graphics/SVG/1.1/DTD/svg11.dtd">
<svg version="1.1" id="Слой_1" xmlns="http://www.w3.org/2000/svg" xmlns:xlink="http://www.w3.org/1999/xlink" x="0px" y="0px"
	 width="98.957px" height="109.328px" viewBox="0 0 98.957 109.328" enable-background="new 0 0 98.957 109.328"
	 xml:space="preserve">
<g>
	<g>
		<circle fill="#FFFFFF" cx="23.131" cy="54.687" r="3.32"/>
		<circle fill="#FFFFFF" cx="49.274" cy="54.687" r="3.319"/>
		<path fill="#FFFFFF" d="M37.807,78.383c-0.296,0-0.593-0.013-0.89-0.043c-4.522-0.324-6.538-3.938-6.97-5.806
			c-0.169-0.73,0.287-1.462,1.02-1.63c0.731-0.166,1.456,0.285,1.628,1.009c0.039,0.161,0.898,3.457,4.551,3.718
			c2.914,0.286,5.892-1.437,6.395-3.697c0.161-0.733,0.885-1.19,1.621-1.031c0.732,0.16,1.193,0.887,1.031,1.621
			C45.455,75.849,41.731,78.383,37.807,78.383z"/>
	</g>
	<path fill="#FFFFFF" d="M47.813,0.043C11.214-1.263-0.983,27.432,2.816,41.283C1.005,45.862,0,50.837,0,56.053
		C0,72.43,9.828,86.549,23.895,92.846c-6.635,3.857-7.782,14.46-7.836,14.978c-0.075,0.753,0.472,1.423,1.226,1.496
		c0.044,0.005,0.089,0.008,0.136,0.008c0.692,0,1.287-0.525,1.357-1.23c0.014-0.124,1.337-12.424,8.934-13.771
		c3.963,1.304,8.192,2.022,12.59,2.022c5.248,0,10.262-1.019,14.864-2.853c-2.488,10.77,14.241,15.379,15.87,8.317
		c-1.367,2.05-5.464,1.367-6.832-3.416c0-1.822,0.639-3.299,1.721-4.567c0.203,0.229,0.472,0.404,0.8,0.452
		c7.741,1.193,9.082,13.69,9.092,13.814c0.071,0.705,0.667,1.23,1.36,1.23c0.044,0,0.091-0.003,0.134-0.008
		c0.753-0.073,1.301-0.743,1.226-1.496c-0.058-0.575-1.475-13.674-10.322-16.011c6.856-4.755,20.686-6.922,26.729-18.004
		C108.602,46.49,86.061,1.41,47.813,0.043z M40.301,93.295c-20.538,0-37.248-16.705-37.248-37.242c0-4.774,0.913-9.337,2.558-13.534
		c12.174-3.859,33.321-21.984,33.321-21.984c34.836,8.197,40.982,46.447,22.541,63.521c-2.008,1.86-3.463,3.622-4.506,5.289
		C51.948,91.867,46.29,93.295,40.301,93.295z"/>
</g>
</svg>
