<?xml version="1.0" encoding="utf-8"?>
<!-- Generator: Adobe Illustrator 16.0.0, SVG Export Plug-In . SVG Version: 6.00 Build 0)  -->
<!DOCTYPE svg PUBLIC "-//W3C//DTD SVG 1.1//EN" "http://www.w3.org/Graphics/SVG/1.1/DTD/svg11.dtd">
<svg version="1.1" id="Слой_1" xmlns="http://www.w3.org/2000/svg" xmlns:xlink="http://www.w3.org/1999/xlink" x="0px" y="0px"
	 width="79.271px" height="107.316px" viewBox="0 0 79.271 107.316" enable-background="new 0 0 79.271 107.316"
	 xml:space="preserve">
<g>
	<path fill="#FFFFFF" d="M75.919,40.512c-2.227,1.423-4.568,2.211-6.457,2.655c-0.2-1.044-0.439-2.068-0.709-3.067
		c5.064-1.786,9.205-5.13,9.199-6.841c-0.011-3.156-3.6-1.314-3.6-1.314c-2.313,2.189-4.973,3.505-6.881,4.251
		c-0.395-1.022-0.824-2.003-1.287-2.941c4.613-3.052,7.923-7.554,7.461-9.249c-0.832-3.043-3.82-0.329-3.82-0.329
		c-1.721,2.807-4.029,4.805-5.691,6.009c-0.652-0.971-1.338-1.866-2.059-2.675c1.389-1.76,2.562-4.339,2.281-7.975
		C70.216,16.943,73.145,3.556,61.847,0l1.047,7.738l-4.812-6.485c0,0-7.739,9.205,2.302,17.363c0.869,0.497-0.406,3.115-2.369,4.953
		c-0.523-0.313-1.059-0.584-1.598-0.803c-2.608-0.967-5.504-1.476-8.374-1.476c-0.045,0-0.088,0.004-0.132,0.004
		c-0.156-1.39-0.854-3.617-3.662-4.529c-0.551,0.599,0.175,3.593,0.485,4.764c-1.239,0.174-2.415,0.438-3.456,0.799
		c-0.247,0.049-0.854,0.184-1.686,0.445c-0.47-1.195-1.599-3.86-2.373-4.016c-1.459,2.021-1.15,3.918-0.601,5.187
		c-2.189,1.046-4.76,2.704-6.875,5.279c-2.653-1.21-4.968-3.824-4.177-4.583C33.331,14.294,23.59,7.241,23.59,7.241l-3.096,7.457
		l-0.86-7.763c-10.099,6.189-4.01,18.47,2.18,19.079c0.728,4.296,3.104,6.632,5.171,7.891c-0.47,1.173-0.845,2.46-1.094,3.873
		c-1.855,0.039-5.688-0.129-9.428-1.856c0,0-3.991-0.599-2.992,2.396c0.58,1.739,6.274,3.738,12.068,3.533
		c0,0.561,0.01,1.135,0.045,1.729c0.027,0.473,0.082,0.91,0.121,1.37c-1.995,0.472-5.089,0.93-8.415,0.362
		c0,0-4.008,0.462-2.267,3.092c0.933,1.404,6.076,1.893,11.198,0.646c0.19,1.085,0.407,2.134,0.66,3.126
		c-1.715,0.583-3.824,1.088-6.142,1.132c0,0-3.848,1.204-1.646,3.458c1.008,1.034,4.932,0.824,9.052-0.628
		c3.362,8.826,9.185,13.318,13.061,15.417c1.759,0.954,4.795,1.522,8.123,1.522c8.158,0,17.658-3.344,19.851-12.721
		c1.03-4.408,1.253-8.857,0.86-13.086c4.82-0.966,8.877-3.235,9.169-4.794C79.792,39.374,75.919,40.512,75.919,40.512z
		 M66.726,59.782c-1.857,7.942-10.205,10.773-17.395,10.773c-2.842,0-5.557-0.479-6.922-1.219
		c-4.941-2.677-13.371-9.6-14.308-25.905c-0.919-15.986,13.117-18.539,13.714-18.641l0.215-0.053
		c1.69-0.597,3.826-0.926,6.013-0.926c2.575,0,5.169,0.456,7.458,1.303C63.493,28.384,70.28,44.577,66.726,59.782z"/>
	<g>
		<path fill="#FFFFFF" d="M3.021,77.723c0,0,3.194,4.393,7.584-0.797c1.596-2.594,0.997-9.978,0.997-9.978l-4.791,4.788L4.219,66.55
			C4.219,66.55-0.171,70.739,3.021,77.723z"/>
		<path fill="#FFFFFF" d="M63.957,88.647c-1.525,6.015-8.521,9.43-15.625,7.629c-7.108-1.797-11.633-8.132-10.111-14.143
			c1.523-6.016,8.519-9.433,15.625-7.634C60.951,76.3,65.477,82.632,63.957,88.647z"/>
		<path fill="#FFFFFF" d="M38.246,105.526c-4.245,3.188-10.519,2.005-14.004-2.646c-3.491-4.647-2.877-11,1.37-14.189
			c4.247-3.186,10.519-2.002,14.01,2.648C43.108,95.985,42.496,102.34,38.246,105.526z"/>
		<path fill="#FFFFFF" d="M21.053,97.913c-1.379,4.355-5.591,6.906-9.403,5.698c-3.816-1.21-5.789-5.723-4.407-10.077
			c1.382-4.358,5.596-6.908,9.408-5.701C20.465,89.044,22.438,93.552,21.053,97.913z"/>
		<path fill="#FFFFFF" d="M8.891,89.634c-2.263,2.312-5.193,2.396-7.218,0.418c-2.027-1.983-2.381-5.275-0.117-7.592
			c2.263-2.314,5.741-2.583,7.765-0.606C11.348,83.836,11.155,87.32,8.891,89.634z"/>
	</g>
</g>
</svg>
