<?xml version="1.0" encoding="utf-8"?>
<!-- Generator: Adobe Illustrator 16.0.0, SVG Export Plug-In . SVG Version: 6.00 Build 0)  -->
<!DOCTYPE svg PUBLIC "-//W3C//DTD SVG 1.1//EN" "http://www.w3.org/Graphics/SVG/1.1/DTD/svg11.dtd">
<svg version="1.1" id="Слой_1" xmlns="http://www.w3.org/2000/svg" xmlns:xlink="http://www.w3.org/1999/xlink" x="0px" y="0px"
	 width="78.417px" height="81.492px" viewBox="0 0 78.417 81.492" enable-background="new 0 0 78.417 81.492" xml:space="preserve">
<g>
	<ellipse fill="#FFFFFF" cx="30.303" cy="65.341" rx="5.044" ry="5.202"/>
	<ellipse fill="#FFFFFF" cx="50.006" cy="65.341" rx="5.044" ry="5.202"/>
	<ellipse fill="#FFFFFF" cx="50.637" cy="40.831" rx="2.522" ry="2.6"/>
	<ellipse fill="#FFFFFF" cx="31.722" cy="40.831" rx="2.521" ry="2.6"/>
	<path fill="#FFFFFF" d="M77.905,40.436c-1.649-3.201-4.189-4.848-5.904-5.641c-0.207-1.615-0.654-3.087-1.3-4.423
		c4.745-5.412,14.359-19.686-5.036-30.006c0,0-2.26-1.069-1.567,0.447c0,0,11.042,10.049-4.507,20.328
		c-6.82-2.723-14.887-3.401-20.055-3.107c-5.245-0.3-13.477,0.407-20.359,3.234C3.347,10.942,14.479,0.813,14.479,0.813
		c0.692-1.516-1.567-0.447-1.567-0.447c-19.832,10.552-9.33,25.243-4.72,30.36c-0.521,1.161-0.893,2.416-1.095,3.777
		c-1.646,0.644-4.697,2.271-6.586,5.933c-2.451,4.766,4.598,4.76,6.895,2.064c1.754,8.631,7.678,13.861,10.311,15.807
		c-2.217,2.33-3.381,4.972-3.381,7.717c0,8.676,11.314,15.468,25.758,15.468c14.444,0,25.758-6.792,25.758-15.468
		c0-2.939-1.334-5.749-3.881-8.197c2.877-2.279,7.844-7.19,9.566-14.818C74.22,45.171,80.194,44.875,77.905,40.436z M59.249,56.703
		c-0.326,0.227-0.527,0.593-0.543,0.993c-0.014,0.397,0.159,0.779,0.469,1.028c1.896,1.527,4.154,4.031,4.154,7.3
		c0,7.139-10.424,12.946-23.236,12.946s-23.234-5.807-23.234-12.946c0-2.452,1.282-4.856,3.713-6.953
		c0.355-0.309,0.511-0.789,0.402-1.247c-0.104-0.435-0.423-0.778-0.846-0.912c-1.4-0.895-11.449-7.786-10.654-20.901
		c0.35-5.766,6.576-15.523,27.697-15.523c0.813,0,1.582,0.025,2.289,0.068c0.049,0.002,0.1,0.002,0.149,0
		c0.709-0.043,1.474-0.068,2.288-0.068c21.123,0,27.348,9.757,27.699,15.523C70.329,48.096,61.862,54.904,59.249,56.703z"/>
</g>
</svg>
