<?xml version="1.0" encoding="utf-8"?>
<!-- Generator: Adobe Illustrator 16.0.0, SVG Export Plug-In . SVG Version: 6.00 Build 0)  -->
<!DOCTYPE svg PUBLIC "-//W3C//DTD SVG 1.1//EN" "http://www.w3.org/Graphics/SVG/1.1/DTD/svg11.dtd">
<svg version="1.1" id="Capa_1" xmlns="http://www.w3.org/2000/svg" xmlns:xlink="http://www.w3.org/1999/xlink" x="0px" y="0px"
	 width="226.641px" height="226.641px" viewBox="0 0 226.641 226.641" enable-background="new 0 0 226.641 226.641"
	 xml:space="preserve">
<g>
	<path fill="#FFFFFF" d="M225.799,83c-0.723-0.723-1.771-1.005-2.761-0.739L185.594,92.29c-0.982,0.267-1.756,1.034-2.02,2.021
		c-0.265,0.985,0.018,2.039,0.741,2.76l3.599,3.601l-0.692,0.693c-13.317,13.317-33.468,16.552-50.151,8.412L167.047,79.8
		l3.602,3.602c0.006,0.011,0.014,0.017,0.02,0.021c1.118,1.115,2.926,1.115,4.043,0c0.464-0.465,0.734-1.048,0.813-1.649
		l9.938-37.094c0.267-0.986-0.018-2.039-0.739-2.762c-0.723-0.723-1.773-1.005-2.763-0.74L144.52,51.208
		c-0.985,0.266-1.757,1.035-2.021,2.021c-0.265,0.985,0.017,2.038,0.739,2.762l3.602,3.599l-29.977,29.977
		c-8.137-16.685-4.907-36.833,8.412-50.152l0.69-0.691l3.604,3.599c0.005,0.011,0.014,0.018,0.018,0.021
		c1.118,1.117,2.929,1.117,4.043,0c0.465-0.464,0.734-1.047,0.813-1.649L144.378,3.6c0.266-0.988-0.019-2.04-0.737-2.763
		c-0.726-0.723-1.774-1.005-2.764-0.739l-37.441,10.029c-0.985,0.267-1.756,1.035-2.021,2.021c-0.264,0.986,0.019,2.04,0.741,2.762
		l3.6,3.602l-0.693,0.692C80.504,43.762,76.847,81.77,95.969,110.46L4.18,202.249c-5.572,5.571-5.57,14.643,0,20.211
		c5.571,5.572,14.641,5.572,20.213,0l91.788-91.787c28.688,19.122,66.696,15.466,91.255-9.094l0.692-0.693l3.604,3.602
		c0.721,0.724,1.771,1.006,2.759,0.741c0.988-0.268,1.756-1.034,2.021-2.021l10.028-37.441
		C226.803,84.772,226.522,83.722,225.799,83z"/>
</g>
</svg>
