<?xml version="1.0" encoding="utf-8"?>
<!-- Generator: Adobe Illustrator 16.0.0, SVG Export Plug-In . SVG Version: 6.00 Build 0)  -->
<!DOCTYPE svg PUBLIC "-//W3C//DTD SVG 1.1//EN" "http://www.w3.org/Graphics/SVG/1.1/DTD/svg11.dtd">
<svg version="1.1" id="Слой_1" xmlns="http://www.w3.org/2000/svg" xmlns:xlink="http://www.w3.org/1999/xlink" x="0px" y="0px"
	 width="139.364px" height="150px" viewBox="0 0 139.364 150" enable-background="new 0 0 139.364 150" xml:space="preserve">
<g>
	<path fill="#FFFFFF" d="M35.143,18.244l4.067,1.775c-2.821,1.728-4.095,3.417-3.772,5.026c0.331,1.662,1.851,3.095,4.521,4.261
		c2.459,1.074,5.356,1.655,8.858,1.777c3.454,0.12,8.781-0.852,15.841-2.889c1.754-0.508,3.128-0.803,4.083-0.876
		c0.936-0.074,1.688,0.031,2.373,0.331c0.471,0.206,1.906,0.831-1.703,2.407c-2.344,1.023-4.771,1.444-7.214,1.252
		c-1.932-0.15-3.889,0.206-5,0.912l-2.168,1.38c-0.948,0.603-1.14,1.373-0.515,2.05c0.624,0.677,1.985,1.172,3.625,1.319
		c5.355,0.481,10.643-0.136,15.723-1.824l5.49,2.397c1.951,0.852,5.113,0.852,7.063,0.002c1.949-0.852,1.949-2.232,0-3.084
		l-5.683-2.48c2.495-1.586,3.809-3.188,3.9-4.774c0.109-1.854-1.389-3.474-4.452-4.811c-2.187-0.955-4.681-1.545-7.407-1.755
		c-2.729-0.212-5.314-0.094-7.682,0.351c-2.335,0.439-5.891,1.325-10.543,2.627c-2.025,0.561-3.398,0.847-4.088,0.851
		c-0.657,0.003-1.246-0.101-1.703-0.301c-1.621-0.706-0.26-1.599,1.169-2.222c1.772-0.774,3.665-1.14,5.622-1.088
		c1.962,0.052,3.813-0.406,4.723-1.166l1.258-1.049c0.796-0.664,0.753-1.459-0.111-2.107c-0.863-0.647-2.43-1.056-4.146-1.082
		c-3.724-0.053-7.315,0.445-10.928,1.515l-4.141-1.807c-1.951-0.852-5.112-0.852-7.063,0C33.193,16.012,33.193,17.393,35.143,18.244
		z"/>
	<path fill="#FFFFFF" d="M121.06,40.266c0.33-1.375,0.5-2.775,0.5-4.194v-4.486c0-8.964-6.693-17.16-18.845-23.078
		C91.449,3.021,76.556,0,60.78,0C45.003,0,30.111,3.021,18.846,8.508C6.693,14.426,0,22.622,0,31.586v4.486
		c0,8.839,6.513,16.93,18.346,22.828c-0.328,1.368-0.54,3.073-0.54,4.174v0.819C6.313,69.766,0,77.746,0,86.45v4.485
		c0,6.045,3.048,11.737,8.756,16.623c-0.772,2.063-1.176,4.192-1.176,6.368v4.486c0,8.964,6.692,17.16,18.845,23.078
		C37.691,146.979,52.583,150,68.36,150s30.669-3.021,41.936-8.508c12.151-5.918,18.845-14.114,18.845-23.078v-4.486
		c0-6.043-3.045-11.736-8.75-16.619c0.771-2.063,1.169-4.194,1.169-6.371v-0.818c11.493-5.874,17.805-13.854,17.805-22.559v-4.486
		C139.364,54.245,132.867,46.162,121.06,40.266z M8.495,27.79c1.761-4.476,6.556-8.821,13.74-12.32
		c10.231-4.983,23.92-7.727,38.545-7.727s28.314,2.744,38.545,7.727c7.187,3.499,11.979,7.845,13.74,12.32
		c-6.219,10.817-27.826,18.705-52.286,18.705C36.319,46.494,14.714,38.607,8.495,27.79z M8.495,82.654
		c1.432-3.639,4.878-7.188,9.977-10.271c1.964,7.059,8.247,13.417,18.18,18.254c11.266,5.486,26.159,8.508,41.935,8.508
		c1.542,0,3.073-0.037,4.597-0.095c-6.888,1.481-14.493,2.31-22.4,2.31C36.32,101.359,14.714,93.473,8.495,82.654z M120.646,110.132
		c-6.219,10.817-27.824,18.704-52.285,18.704c-21.249,0-40.332-5.955-49.056-14.609c11.211,5.35,25.91,8.295,41.476,8.295
		c15.775,0,30.669-3.021,41.936-8.508c5.837-2.843,10.41-6.212,13.592-9.938C118.359,106.02,119.83,108.061,120.646,110.132z
		 M78.584,77.982c-21.355,0-40.535-6.014-49.198-14.738c9.354,2.87,20.146,4.414,31.395,4.414c15.775,0,30.669-3.021,41.936-8.508
		c6.82-3.322,11.923-7.362,15.085-11.853c6.811,3.439,11.365,7.648,13.069,11.982C124.651,70.095,103.044,77.982,78.584,77.982z"/>
</g>
</svg>
