<?xml version="1.0" encoding="utf-8"?>
<!-- Generator: Adobe Illustrator 16.0.0, SVG Export Plug-In . SVG Version: 6.00 Build 0)  -->
<!DOCTYPE svg PUBLIC "-//W3C//DTD SVG 1.1//EN" "http://www.w3.org/Graphics/SVG/1.1/DTD/svg11.dtd">
<svg version="1.1" id="Слой_1" xmlns="http://www.w3.org/2000/svg" xmlns:xlink="http://www.w3.org/1999/xlink" x="0px" y="0px"
	 width="335.0805664px" height="261.5615234px" viewBox="0 0 335.0805664 261.5615234"
	 enable-background="new 0 0 335.0805664 261.5615234" xml:space="preserve">
<g>
	<g>
		<path fill="#FFFFFF" d="M311.175293,79.015625c-1.3535156-10.1855469-1.546875-27.7285156,7.9140625-33.6210938
			c0.1699219-0.1064453,0.2949219-0.2636719,0.4433594-0.3964844c7.7333984-2.4736328,13.0878906-5.9462891,8.8867188-10.6181641
			L214.315918,0L29.5605469,25.6855469c0,0-21.1572266,3.0244141-19.2670898,35.8955078
			c1.0258789,17.8896484,6.637207,26.6757813,11.5439453,31L6.6762695,97.1503906
			c-4.2080078,4.671875,1.144043,8.1445313,8.8803711,10.6132813c0.1469727,0.1396484,0.2709961,0.2929688,0.4428711,0.4013672
			c9.4550781,5.8955078,9.2729492,23.4375,7.9130859,33.625c-33.9672852,9.6455078-21.7739258,12.7890625-21.7739258,12.7890625
			l7.4506836,1.8027344c-5.2407227,4.7363281-10.4458008,13.7167969-9.4707031,30.75
			c1.890625,32.8632813,19.269043,35.1318359,19.269043,35.1318359l120.9038086,39.2978516l182.4902344-44.1992188
			c0,0,12.1943359-3.1484375-21.7792969-12.7949219c-1.3642578-10.1738281-1.5556641-27.7138672,7.921875-33.6230469
			c0.1738281-0.1044922,0.3007813-0.265625,0.4414063-0.3964844c7.7333984-2.4736328,13.0839844-5.9404297,8.8808594-10.6152344
			l-7.9316406-2.3955078c5.2890625-3.1894531,13.2333984-11.5263672,14.4794922-33.1845703
			c0.859375-14.8955078-3.0273438-23.6181641-7.5244141-28.7558594l15.6796875-3.7939453
			C332.949707,91.8095703,345.1469727,88.6621094,311.175293,79.015625z M158.5336914,78.5947266l30.6884766-6.3066406
			l103.7070313-21.3134766l15.4492188-3.1777344c-4.9375,9.0361328-4.7285156,21.4023438-3.9121094,29.3515625
			c0.1796875,1.7978516,0.3867188,3.4384766,0.5839844,4.6875l-16.9101563,4.2050781l-130.8955078,32.5625L158.5336914,78.5947266z
			 M26.7104492,110.578125l15.4492188,3.1777344l99.5966797,20.4755859l8.7011719,1.7802734l0,0l0,0l26.0927734,5.3623047
			l1.2871094,40.0107422L43.3037109,147.9130859l-13.2631836-3.2949219c0.1948242-1.25,0.4008789-2.8925781,0.5878906-4.6933594
			C31.4404297,131.984375,31.6513672,119.6142578,26.7104492,110.578125z M20.7084961,59.9980469
			c-0.1870117-8.7431641,1.3710938-15.0664063,4.5200195-18.2802734c2.0039063-2.0517578,4.3691406-2.4785156,5.9907227-2.4785156
			c0.8574219,0,1.4741211,0.1191406,1.5161133,0.1191406l79.6069336,25.9511719l39.7172852,12.9492188l-1.3032227,40.2890625
			L39.3344727,87.3105469l-5.8798828-1.6455078c-0.2163086-0.0625-0.5092773-0.1044922-0.7353516-0.1132813
			C32.2602539,85.5175781,21.2446289,84.5039063,20.7084961,59.9980469z M140.5795898,244.1074219L23.2802734,211.2207031
			c-0.2167969-0.0625-0.5068359-0.1035156-0.7329102-0.1162109c-0.4667969-0.0292969-11.487793-1.0439453-12.0209961-25.5439453
			c-0.1899414-8.7539063,1.3759766-15.0693359,4.519043-18.2861328c2.0092773-2.0537109,4.375-2.4794922,5.9941406-2.4794922
			c0.8588867,0,1.4741211,0.1152344,1.519043,0.1152344c0,0,0.0048828,0,0,0l119.315918,38.9082031L140.5795898,244.1074219z
			 M294.2856445,202.7001953c0.1835938,1.8037109,0.390625,3.4404297,0.5898438,4.6904297l-147.8120117,36.7714844
			l1.2919922-40.0097656l31.6020508-6.4960938l4.6660156,1.1289063l17.4921875-5.6875L282.746582,176.53125l15.4570313-3.1826172
			C293.2612305,182.3867188,293.4663086,194.7578125,294.2856445,202.7001953z M302.425293,148.3251953
			c-0.2675781,0.0058594-0.5371094,0.0410156-0.7910156,0.1210938l-11.1464844,3.1210938l-106.1484375,29.7636719
			l-1.2988281-40.2890625l34.8261719-11.3583984l84.3261719-27.5009766c0.0117188-0.0048828,4.4375-0.9863281,7.6855469,2.3154297
			c3.1455078,3.2138672,4.703125,9.5371094,4.5214844,18.2802734
			C313.847168,147.2773438,302.8286133,148.2939453,302.425293,148.3251953z"/>
	</g>
</g>
</svg>
