<?xml version="1.0" encoding="utf-8"?>
<!-- Generator: Adobe Illustrator 16.0.0, SVG Export Plug-In . SVG Version: 6.00 Build 0)  -->
<!DOCTYPE svg PUBLIC "-//W3C//DTD SVG 1.1//EN" "http://www.w3.org/Graphics/SVG/1.1/DTD/svg11.dtd">
<svg version="1.1" id="Слой_1" xmlns="http://www.w3.org/2000/svg" xmlns:xlink="http://www.w3.org/1999/xlink" x="0px" y="0px"
	 width="150px" height="150px" viewBox="0 0 150 150" enable-background="new 0 0 150 150" xml:space="preserve">
<g>
	<path fill="#FFFFFF" d="M124.855,47.326l2.594-1.279c1.322-0.652,2.043-2.107,1.762-3.554c-0.283-1.446-1.498-2.525-2.967-2.633
		l-24.469-1.799l-7.754-7.139C93.25,13.745,79.037,0.004,61.67,0l0,0c-1.804,0-3.267,1.462-3.267,3.266
		c0,1.804,1.462,3.267,3.267,3.267c13.789,0.003,25.092,10.855,25.818,24.465l-7.676,7.063L55.344,39.86
		c-1.469,0.108-2.685,1.187-2.967,2.633c-0.282,1.447,0.44,2.903,1.761,3.554l2.592,1.278C45.245,55.016,39,67.014,39,81.708
		c0,13.989,5.663,31.003,14.779,44.399C64.262,141.516,77.406,150,90.793,150s26.533-8.484,37.016-23.891
		c9.117-13.396,14.779-30.41,14.779-44.4C142.588,67.014,136.342,55.016,124.855,47.326z M81.426,44.494
		c0.734-0.054,1.43-0.354,1.973-0.854l7.396-6.807l7.393,6.806c0.543,0.5,1.238,0.801,1.975,0.854l13.635,1.002l-7.764,3.829
		c-1.471,0.725-2.176,2.427-1.648,3.979l1.924,5.668l-14.135-6.564c-0.872-0.406-1.879-0.405-2.752,0l-14.143,6.565l1.926-5.668
		c0.525-1.552-0.18-3.255-1.65-3.979l-7.763-3.828L81.426,44.494z M122.406,122.434c-9.094,13.367-20.617,21.033-31.613,21.033
		s-22.519-7.666-31.613-21.033c-8.418-12.371-13.647-27.977-13.647-40.725c0-17.328,9.561-26.345,18.16-30.951l6.405,3.159
		l-3.456,10.182c-0.42,1.237-0.062,2.607,0.911,3.48c0.971,0.874,2.372,1.083,3.557,0.533l19.689-9.139l19.68,9.139
		c0.441,0.204,0.91,0.304,1.375,0.304c0.008,0,0.016,0,0.023,0c1.799-0.005,3.256-1.466,3.256-3.267
		c0-0.463-0.096-0.903-0.271-1.302l-3.367-9.93l6.4-3.158c8.602,4.604,18.162,13.62,18.162,30.949
		C136.055,94.457,130.826,110.063,122.406,122.434z"/>
	<path fill="#FFFFFF" d="M61.492,69.663c-1.804,0-3.267,1.463-3.267,3.267v6.954c0,1.804,1.463,3.267,3.267,3.267
		c1.804,0,3.267-1.463,3.267-3.267V72.93C64.759,71.125,63.296,69.663,61.492,69.663z"/>
	<path fill="#FFFFFF" d="M90.793,69.663c-1.805,0-3.268,1.463-3.268,3.267v6.954c0,1.804,1.463,3.267,3.268,3.267
		s3.268-1.463,3.268-3.267V72.93C94.061,71.125,92.598,69.663,90.793,69.663z"/>
	<path fill="#FFFFFF" d="M120.094,69.663c-1.803,0-3.266,1.463-3.266,3.267v6.954c0,1.804,1.463,3.267,3.266,3.267
		c1.805,0,3.268-1.463,3.268-3.267V72.93C123.361,71.125,121.898,69.663,120.094,69.663z"/>
	<path fill="#FFFFFF" d="M76.141,94.936c-1.803,0-3.266,1.463-3.266,3.267v6.955c0,1.803,1.463,3.267,3.266,3.267
		c1.805,0,3.268-1.464,3.268-3.267v-6.955C79.406,96.398,77.943,94.936,76.141,94.936z"/>
	<path fill="#FFFFFF" d="M105.445,94.936c-1.805,0-3.268,1.463-3.268,3.267v6.955c0,1.803,1.463,3.267,3.268,3.267
		s3.268-1.464,3.268-3.267v-6.955C108.713,96.398,107.25,94.936,105.445,94.936z"/>
	<path fill="#FFFFFF" d="M90.646,120.383c-1.805,0-3.268,1.463-3.268,3.268v6.953c0,1.806,1.463,3.268,3.268,3.268
		c1.803,0,3.266-1.462,3.266-3.268v-6.953C93.912,121.846,92.451,120.383,90.646,120.383z"/>
</g>
</svg>
