<?xml version="1.0" encoding="utf-8"?>
<!-- Generator: Adobe Illustrator 16.0.0, SVG Export Plug-In . SVG Version: 6.00 Build 0)  -->
<!DOCTYPE svg PUBLIC "-//W3C//DTD SVG 1.1//EN" "http://www.w3.org/Graphics/SVG/1.1/DTD/svg11.dtd">
<svg version="1.1" id="Слой_1" xmlns="http://www.w3.org/2000/svg" xmlns:xlink="http://www.w3.org/1999/xlink" x="0px" y="0px"
	 width="503.879px" height="549.701px" viewBox="0 0 503.879 549.701" enable-background="new 0 0 503.879 549.701"
	 xml:space="preserve">
<g>
	<g>
		<path fill="#FFFFFF" d="M45.808,136.268v276c0,37.938,15.686,70.326,47.057,97.168c31.377,26.844,69.131,40.266,113.269,40.266
			c44.137,0,81.897-13.422,113.271-40.266c31.369-26.842,47.057-59.225,47.057-97.168v-47.232
			c39.131-4.77,71.811-20.037,98.055-45.811c26.248-25.764,39.363-55.826,39.363-90.184V45.808c0-6.199-2.264-11.566-6.799-16.102
			c-4.529-4.529-9.896-6.799-16.104-6.799c-1.432,0-3.336,0.245-5.729,0.716c-4.051-7.161-9.664-12.883-16.818-17.173
			c-7.15-4.296-14.908-6.444-23.262-6.444c-12.645,0-23.445,4.474-32.387,13.421c-8.947,8.948-13.424,19.755-13.424,32.394
			c0,12.644,4.477,23.433,13.424,32.381c8.945,8.947,19.742,13.421,32.387,13.421c7.871,0,15.508-2.148,22.902-6.438v143.863
			c0,25.294-11.215,46.878-33.645,64.774c-22.424,17.895-49.389,26.842-80.881,26.842c-31.494,0-58.453-8.947-80.877-26.842
			c-22.423-17.896-33.642-39.48-33.642-64.774V85.172c7.404,4.296,15.037,6.438,22.914,6.438c12.65,0,23.439-4.474,32.386-13.421
			c8.945-8.948,13.422-19.737,13.422-32.381c0-12.638-4.477-23.445-13.422-32.393C275.381,4.468,264.592,0,251.942,0
			c-8.348,0-16.102,2.148-23.262,6.444c-7.154,4.291-12.76,10.013-16.818,17.173c-2.38-0.471-4.296-0.716-5.728-0.716
			c-6.2,0-11.567,2.271-16.102,6.799c-4.529,4.535-6.799,9.902-6.799,16.102v183.227c0,34.358,13.127,64.418,39.37,90.184
			c26.249,25.771,58.928,41.041,98.053,45.809v47.234c0,25.301-11.211,46.885-33.643,64.779
			c-22.424,17.895-49.38,26.844-80.875,26.844c-31.493,0-58.452-8.947-80.875-26.844c-22.424-17.896-33.642-39.48-33.642-64.779
			V136.268c13.599-5.006,24.639-13.348,33.103-25.049c8.47-11.689,12.705-24.927,12.705-39.725c0-19.076-6.677-35.306-20.037-48.672
			C104.022,9.474,87.804,2.785,68.709,2.785c-19.082,0-35.306,6.689-48.672,20.037C6.677,36.188,0,52.418,0,71.494
			c0,14.798,4.235,28.036,12.705,39.725C21.175,122.914,32.21,131.262,45.808,136.268z M52.608,55.386
			c4.535-4.529,9.902-6.799,16.102-6.799c6.206,0,11.579,2.271,16.102,6.799c4.535,4.541,6.799,9.915,6.799,16.102
			c0,6.206-2.265,11.573-6.799,16.102c-4.529,4.542-9.896,6.8-16.102,6.8c-6.199,0-11.567-2.258-16.102-6.8
			c-4.529-4.528-6.799-9.896-6.799-16.102C45.808,65.301,48.072,59.933,52.608,55.386z"/>
	</g>
</g>
</svg>
