<?xml version="1.0" encoding="utf-8"?>
<!-- Generator: Adobe Illustrator 16.0.0, SVG Export Plug-In . SVG Version: 6.00 Build 0)  -->
<!DOCTYPE svg PUBLIC "-//W3C//DTD SVG 1.1//EN" "http://www.w3.org/Graphics/SVG/1.1/DTD/svg11.dtd">
<svg version="1.1" id="Слой_1" xmlns="http://www.w3.org/2000/svg" xmlns:xlink="http://www.w3.org/1999/xlink" x="0px" y="0px"
	 width="84.984px" height="150px" viewBox="0 0 84.984 150" enable-background="new 0 0 84.984 150" xml:space="preserve">
<g>
	<path fill="#FFFFFF" d="M74.076,0c0,0-42.399,0-58.994,0C-1.504,0,0.038,9.239,0.038,9.239c0,0.291,0.058,0.562,0.085,0.838
		c-0.021,0.292-0.085,0.562-0.085,0.846v128.161C0.038,145.125,4.92,150,10.954,150h63.115c6.033,0,10.916-4.883,10.916-10.916
		V10.923C84.992,4.896,80.102,0,74.076,0z M66.885,6.836c1.541,0,2.793,1.251,2.793,2.8c0,1.535-1.252,2.793-2.793,2.793
		c-1.557,0-2.809-1.258-2.809-2.793C64.076,8.087,65.328,6.836,66.885,6.836z M27.889,7.902h29.257v3.191H27.889V7.902z
		 M26.681,139.504H10.286v-10.419h16.396V139.504L26.681,139.504z M26.681,124.252H10.286v-10.445h16.396V124.252L26.681,124.252z
		 M26.681,108.404H10.286V97.973h16.396V108.404L26.681,108.404z M26.681,93.125H10.286V82.686h16.396V93.125L26.681,93.125z
		 M51.463,139.504H35.067v-10.419h16.396V139.504L51.463,139.504z M51.463,124.252H35.067v-10.445h16.396V124.252L51.463,124.252z
		 M51.463,108.404H35.067V97.973h16.396V108.404L51.463,108.404z M51.463,93.125H35.067V82.686h16.396V93.125L51.463,93.125z
		 M74.752,139.504H58.348v-10.419H74.75v10.419H74.752z M74.752,124.252H58.348v-10.445H74.75v10.445H74.752z M74.752,108.404
		H58.348V97.973H74.75v10.432H74.752z M74.752,93.125H58.348V82.686H74.75v10.439H74.752z M76.805,75.011H8.225V18.442h68.58V75.011
		z"/>
</g>
</svg>
