<?xml version="1.0" encoding="utf-8"?>
<!-- Generator: Adobe Illustrator 16.0.0, SVG Export Plug-In . SVG Version: 6.00 Build 0)  -->
<!DOCTYPE svg PUBLIC "-//W3C//DTD SVG 1.1//EN" "http://www.w3.org/Graphics/SVG/1.1/DTD/svg11.dtd">
<svg version="1.1" id="Слой_1" xmlns="http://www.w3.org/2000/svg" xmlns:xlink="http://www.w3.org/1999/xlink" x="0px" y="0px"
	 width="73.289px" height="73.289px" viewBox="0 0 73.289 73.289" enable-background="new 0 0 73.289 73.289" xml:space="preserve">
<path fill="#FFFFFF" d="M64.09,28.595c-0.852,0.426-8.746,5.799-8.746,5.799s-0.916,0.523-0.295,0.98l2.016,1.371
	c-1.697,2.407-8.197,11.538-10.154,12.731c-2.262,1.377-3.441-1.18-0.049-17.344c1.818-6.585,1.178-9.631-1.428-11.105
	c-2.602-1.474-7.025,0.1-8.008,2.408c0,0-0.493-4.129-4.767-4.178c-4.274-0.047-8.499,4.228-9.78,6.979c0,0,0.099-2.704,0.738-4.668
	c0.641-1.967-1.128-3.227-2.848-1.835c0,0-8.419,7.895-12.187,15.168c-0.196,0.556-0.36,1.507,0.786,2.16
	c1.146,0.655,2.13,0.098,2.555-0.621c0.425-0.722,3.803-6.092,6.781-8.353c0.688-0.59,0.654,0.36,0.261,1.539
	c-0.394,1.18-5.304,13.857-6.059,21.882c-0.164,1.835,2.883,2.85,3.505,0.589c0.424-1.769,4.406-18.934,9.367-24.436
	c1.817-1.967,4.079-3.245,6.339-2.751c2.261,0.49,0.834,5.309,0.05,8.551c-0.786,3.244-3.784,14.689-4.178,17.837
	c-0.294,1.964,2.407,3.537,3.096,0.686c0.688-2.848,4.817-19.949,6.635-23.29c1.818-3.34,3.828-2.97,4.867-2.9
	c1.424,0.1,1.963,1.917,0.832,6.487c-1.131,4.57-3.342,15.132-2.209,18.327c1.129,3.193,3.635,4.915,7.121,2.162
	c3.074-2.425,9.66-12.094,11.18-14.358l1.99,1.354c0,0,0.787,0.326,0.916-0.261c0.133-0.591,2.426-10.614,2.426-10.614
	S64.941,28.169,64.09,28.595z"/>
<circle fill="none" stroke="#FFFFFF" stroke-width="2" stroke-miterlimit="10" cx="36.645" cy="36.645" r="35.145"/>
</svg>
