<?xml version="1.0" encoding="utf-8"?>
<!-- Generator: Adobe Illustrator 16.0.0, SVG Export Plug-In . SVG Version: 6.00 Build 0)  -->
<!DOCTYPE svg PUBLIC "-//W3C//DTD SVG 1.1//EN" "http://www.w3.org/Graphics/SVG/1.1/DTD/svg11.dtd">
<svg version="1.1" id="Слой_1" xmlns="http://www.w3.org/2000/svg" xmlns:xlink="http://www.w3.org/1999/xlink" x="0px" y="0px"
	 width="73.289px" height="73.289px" viewBox="0 0 73.289 73.289" enable-background="new 0 0 73.289 73.289" xml:space="preserve">
<circle fill="none" stroke="#FFFFFF" stroke-width="2" stroke-miterlimit="10" cx="36.645" cy="36.645" r="35.145"/>
<path fill="#FFFFFF" d="M56.681,34.699c0,0-3.795,0.776-9.873,1.391c2.012-10.414,8.299-17.332,8.299-17.332
	c1.991-2.444-1.143-4.12-3.028-1.749c-5.773,6.783-8.401,13.499-9.326,19.435c-3.118,0.228-6.628,0.382-10.396,0.384
	c-0.689-5.673-2.885-12.083-7.781-18.745c-1.712-2.501-4.958-1.052-3.148,1.527c0,0,5.515,7.017,6.948,17.16
	c-4.074-0.119-8.375-0.438-12.755-1.047c-1.155-0.326-2.408,2.873,0.124,3.545c1.13,0.298,6.155,1.033,12.957,1.324
	c0.14,4.95-0.818,10.456-3.778,16.14c-1.053,1.778,0.868,4.247,3.126,1.374c1.004-1.491,4.646-8.154,4.56-17.407
	c3.064,0.04,6.366-0.022,9.753-0.253c-0.327,8.491,2.548,14.76,3.392,16.234c2.05,3.029,4.141,0.704,3.217-1.143
	c-2.387-5.512-3.025-10.741-2.693-15.435c3.989-0.425,8.012-1.11,11.845-2.149C59.947,37.33,58.762,34.208,56.681,34.699z"/>
</svg>
