<?xml version="1.0" encoding="utf-8"?>
<!-- Generator: Adobe Illustrator 16.0.0, SVG Export Plug-In . SVG Version: 6.00 Build 0)  -->
<!DOCTYPE svg PUBLIC "-//W3C//DTD SVG 1.1//EN" "http://www.w3.org/Graphics/SVG/1.1/DTD/svg11.dtd">
<svg version="1.1" id="Слой_1" xmlns="http://www.w3.org/2000/svg" xmlns:xlink="http://www.w3.org/1999/xlink" x="0px" y="0px"
	 width="73.289px" height="73.289px" viewBox="0 0 73.289 73.289" enable-background="new 0 0 73.289 73.289" xml:space="preserve">
<circle fill="none" stroke="#FFFFFF" stroke-width="2" stroke-miterlimit="10" cx="36.645" cy="36.645" r="35.145"/>
<g>
	<path fill="#FFFFFF" d="M37.073,10.606c-5.059-0.354-9.027,1.374-12.072,3.589c-2.608,1.9-4.235,4.447-4.546,7.695
		c-0.327,3.445,0.834,6.697,3.266,9.156c2.306,2.326,5.517,3.74,9.038,3.988c3.247,0.228,6.329-0.588,8.676-2.293
		c2.458-1.789,3.975-4.481,4.267-7.578c0.177-1.824-0.07-3.525-0.7-5.064c0.038,0.023,0.077,0.045,0.116,0.068
		c-0.635-1.234-1.524-2.439-2.762-3.516c5.705-0.207,12.68,9.744,8.284,18.715c0.223,0.17,0.532,0.334,0.965,0.475
		c1.762,0.656,4.81,0.625,5.517-1.094c0.064-0.264,0.119-0.497,0.169-0.725l0.015,0.003l0.036-0.247
		c0.11-0.555,0.172-1.051,0.217-1.607c0.121-1.185,0.013-2.675-0.028-3.728c-0.096-3.735-2.167-7.671-4.563-10.447
		C50.402,15.102,45.994,11.23,37.073,10.606z M37.649,30.793c-7.417,2.617-11.359-1.85-12.925-4.783
		c-1.563-2.934,0.215-6.719,0.215-6.719c3.406-4.844,10.75-5.219,15.345-1.178C44.874,22.156,42.542,29.375,37.649,30.793z"/>
	<path fill="#FFFFFF" d="M41.871,61.998c4.99-0.798,8.286-3.358,10.547-6.184c1.938-2.422,2.725-5.244,2.027-8.446
		c-0.738-3.401-2.857-6.276-5.96-8.1c-2.935-1.725-6.468-2.368-9.94-1.815c-3.205,0.514-5.926,1.995-7.666,4.17
		c-1.823,2.283-2.463,5.218-1.799,8.271c0.395,1.801,1.152,3.387,2.231,4.729c-0.045-0.01-0.09-0.023-0.135-0.037
		c0.995,1.049,2.222,2.01,3.742,2.77C29.48,58.84,19.698,50.81,21.193,41.166c-0.269-0.117-0.615-0.205-1.08-0.242
		c-1.9-0.234-4.831,0.48-4.984,2.3c0.016,0.268,0.035,0.505,0.058,0.735l-0.015,0.002l0.039,0.245
		c0.063,0.561,0.157,1.053,0.286,1.601c0.245,1.172,0.808,2.583,1.169,3.589c1.236,3.583,4.443,6.914,7.604,9.054
		C27.633,60.667,33.071,63.406,41.871,61.998z M35.125,42.648c6.354-4.193,11.525-0.773,13.938,1.705
		c2.409,2.479,1.854,6.532,1.854,6.532c-1.803,5.44-8.772,7.458-14.443,4.592C30.801,52.61,30.84,45.12,35.125,42.648z"/>
</g>
</svg>
