<?xml version="1.0" encoding="utf-8"?>
<!-- Generator: Adobe Illustrator 16.0.0, SVG Export Plug-In . SVG Version: 6.00 Build 0)  -->
<!DOCTYPE svg PUBLIC "-//W3C//DTD SVG 1.1//EN" "http://www.w3.org/Graphics/SVG/1.1/DTD/svg11.dtd">
<svg version="1.1" id="Слой_1" xmlns="http://www.w3.org/2000/svg" xmlns:xlink="http://www.w3.org/1999/xlink" x="0px" y="0px"
	 width="73.289px" height="73.289px" viewBox="0 0 73.289 73.289" enable-background="new 0 0 73.289 73.289" xml:space="preserve">
<circle fill="none" stroke="#FFFFFF" stroke-width="2" stroke-miterlimit="10" cx="36.645" cy="36.645" r="35.145"/>
<g>
	<path fill="#FFFFFF" d="M60.543,51.199c0.07,1.134-1.047,2.129-2.502,2.222L17.95,55.993c-1.453,0.094-2.693-0.75-2.765-1.882l0,0
		c-0.071-1.134,1.049-2.127,2.507-2.219l40.087-2.576C59.232,49.222,60.472,50.067,60.543,51.199L60.543,51.199z"/>
	<path fill="#FFFFFF" d="M60.069,43.806c-0.108-1.667-1.218-1.954-1.673-2.003v-0.02l-8.776,0.563
		c0.984-2.587,3.113-7.783,2.449-14.022c-0.87-8.214-5.958-17.554-16.065-17.013v-0.007c-0.028,0.002-0.057,0.006-0.084,0.007
		c-0.028,0.004-0.057,0.004-0.084,0.006l-0.003,0.005c-10.09,0.754-14.178,10.683-13.99,18.941
		c0.142,6.271,3.149,11.139,4.453,13.578L16.2,44.49c0,0-1.583-0.07-1.449,2.03c0.095,1.058,0.885,1.764,1.983,1.683
		c0.321-0.025,0.679-0.049,1.025-0.07l0.002,0.004l9.98-0.642l-0.169,0.004c0.827,0.036,1.908-0.295,2.45-1.338
		c0.338-0.646,0.563-1.733-0.286-3.233c-0.9-1.601-3.648-6.465-3.792-12.779c-0.073-3.374,0.44-14.411,10.214-15.103
		c9.781-0.564,11.705,10.316,12.06,13.673c0.667,6.284-1.437,11.457-2.125,13.158c-0.651,1.597-0.289,2.647,0.126,3.244
		c0.676,0.964,1.787,1.156,2.607,1.015l-0.172,0.018l9.981-0.639l-0.001-0.013C59.591,45.376,60.106,44.796,60.069,43.806z"/>
</g>
</svg>
