<?xml version="1.0" encoding="utf-8"?>
<!-- Generator: Adobe Illustrator 16.0.0, SVG Export Plug-In . SVG Version: 6.00 Build 0)  -->
<!DOCTYPE svg PUBLIC "-//W3C//DTD SVG 1.1//EN" "http://www.w3.org/Graphics/SVG/1.1/DTD/svg11.dtd">
<svg version="1.1" id="Слой_1" xmlns="http://www.w3.org/2000/svg" xmlns:xlink="http://www.w3.org/1999/xlink" x="0px" y="0px"
	 width="73.289px" height="73.289px" viewBox="0 0 73.289 73.289" enable-background="new 0 0 73.289 73.289" xml:space="preserve">
<circle fill="none" stroke="#FFFFFF" stroke-width="2" stroke-miterlimit="10" cx="36.645" cy="36.645" r="35.145"/>
<path fill="#FFFFFF" d="M60.96,23.143c-2.16-0.155-18.692,0.256-18.692,0.256s-1.32-0.229-0.553,1.344l1.882,3.853
	c-1.647,0.807-5.219,2.548-9.398,4.591l-6.15-11.346c-0.562-1.035-2.038-1.317-3.305-0.631c-1.263,0.684-1.832,2.078-1.273,3.109
	l6.043,11.156c-8.322,4.062-17.098,8.349-17.661,8.624c-1.085,0.53-0.663,1.399-0.663,1.399s1.855,3.797,2.281,4.666
	c0.422,0.868,1.778,0.341,1.778,0.341l17.722-8.653l6.287,11.599c0.562,1.034,2.038,1.317,3.306,0.632
	c1.262-0.687,1.833-2.08,1.273-3.113l-6.181-11.405l9.121-4.457l1.958,4.018c0,0,0.558,1.139,1.618,0.285
	c1.063-0.856,11.401-14.64,11.401-14.64S63.118,23.296,60.96,23.143z"/>
</svg>
