<?xml version="1.0" encoding="utf-8"?>
<!-- Generator: Adobe Illustrator 16.0.0, SVG Export Plug-In . SVG Version: 6.00 Build 0)  -->
<!DOCTYPE svg PUBLIC "-//W3C//DTD SVG 1.1//EN" "http://www.w3.org/Graphics/SVG/1.1/DTD/svg11.dtd">
<svg version="1.1" id="Слой_1" xmlns="http://www.w3.org/2000/svg" xmlns:xlink="http://www.w3.org/1999/xlink" x="0px" y="0px"
	 width="73.289px" height="73.289px" viewBox="0 0 73.289 73.289" enable-background="new 0 0 73.289 73.289" xml:space="preserve">
<circle fill="none" stroke="#FFFFFF" stroke-width="2" stroke-miterlimit="10" cx="36.645" cy="36.645" r="35.145"/>
<path fill="#FFFFFF" d="M15.315,43.274c0,0-0.066,3.217,2.49,3.461s4.556,0.407,3.589-14.887
	c-0.968-15.29,13.674-17.187,19.338-16.625s16.686,4.675,13.651,21.194c-1.855,5.667-3.604,10.766-1.337,12.805
	c2.264,2.038,4.718-0.266,4.934-2.32c0.212-2.058,2.974,0.159,1.628,4.174c-1.349,4.015-14.258,5.758-12.813-5.418
	c1.872-8.417,7.667-22.718-6.444-26.147c-4.723-0.377-14.735,0.628-14.368,12.556c0.367,11.929,0.791,19.997-8.272,20.272
	c-4.07,0.051-7.074-4.594-6.265-7.68C12.257,41.572,15.665,41.376,15.315,43.274z"/>
</svg>
