<?xml version="1.0" encoding="utf-8"?>
<!-- Generator: Adobe Illustrator 16.0.0, SVG Export Plug-In . SVG Version: 6.00 Build 0)  -->
<!DOCTYPE svg PUBLIC "-//W3C//DTD SVG 1.1//EN" "http://www.w3.org/Graphics/SVG/1.1/DTD/svg11.dtd">
<svg version="1.1" id="Слой_1" xmlns="http://www.w3.org/2000/svg" xmlns:xlink="http://www.w3.org/1999/xlink" x="0px" y="0px"
	 width="73.289px" height="73.289px" viewBox="0 0 73.289 73.289" enable-background="new 0 0 73.289 73.289" xml:space="preserve">
<circle fill="none" stroke="#FFFFFF" stroke-width="2" stroke-miterlimit="10" cx="36.645" cy="36.645" r="35.145"/>
<path fill="#FFFFFF" d="M55.107,19.349c1.185-3.313,0.229-5.083-1.126-5.323c-1.341-0.238-2.302,0.414-4.157,4.536
	c-1.916,4.257-6.601,7.474-13.203,7.804c-6.604-0.33-11.152-3.39-13.203-7.804c-1.94-4.174-2.604-4.812-3.944-4.575
	c-1.357,0.238-2.523,2.05-1.341,5.363c2.331,6.488,7.358,9.402,11.588,10.706c-5.541,2.647-9.379,8.308-9.379,14.847
	c0,9.069,7.377,16.443,16.445,16.443c9.067,0,16.445-7.374,16.445-16.443c0-6.592-3.901-12.291-9.513-14.91
	C47.908,28.658,52.813,25.738,55.107,19.349z M48.501,44.902c0,6.459-5.257,11.714-11.714,11.714
	c-6.458,0-11.712-5.255-11.712-11.714c0-6.455,5.254-11.712,11.712-11.712C43.244,33.19,48.501,38.447,48.501,44.902z"/>
</svg>
