<?xml version="1.0" encoding="utf-8"?>
<!-- Generator: Adobe Illustrator 16.0.0, SVG Export Plug-In . SVG Version: 6.00 Build 0)  -->
<!DOCTYPE svg PUBLIC "-//W3C//DTD SVG 1.1//EN" "http://www.w3.org/Graphics/SVG/1.1/DTD/svg11.dtd">
<svg version="1.1" id="Слой_1" xmlns="http://www.w3.org/2000/svg" xmlns:xlink="http://www.w3.org/1999/xlink" x="0px" y="0px"
	 width="73.289px" height="73.289px" viewBox="0 0 73.289 73.289" enable-background="new 0 0 73.289 73.289" xml:space="preserve">
<circle fill="none" stroke="#FFFFFF" stroke-width="2" stroke-miterlimit="10" cx="36.645" cy="36.645" r="35.145"/>
<path fill="#FFFFFF" d="M51.592,21.215c-2.797,0.39-9.94,4.008-11.208,13.22c0,0-1.435-5.445-0.261-11.768
	c0,0,0.278-1.508-0.896-2.18c-1.174-0.674-2.741-0.616-4.251,1.285c-1.511,1.903-12.196,19.694-12.196,19.694
	s-0.616,1.343-1.453-1.286c-0.841-2.631-5.484-18.855-5.484-18.855s-0.336-1.286-3.524-0.333c-1.345,0.445-2.498,1.332-2.146,2.329
	l8.952,27.229c0,0,1.045,3.878,3.357,0.148c2.313-3.731,12.382-20.438,12.382-20.438s0.261-0.861,0.112,0.632
	c-0.149,1.492,0.615,8.149,3.991,11.897c0,0-0.298,4.775,0.073,7.908c0.376,3.132-0.297,6.565-1.938,6.938
	c-1.641,0.373-1.846-1.902-1.287-2.798c0.559-0.896-1.902-1.565-3.244,1.008c-1.345,2.572,0.668,5.705,4.921,5.313
	c2.686-0.169,5.596-0.391,5.203-9.847c-0.308-5.286-0.073-6.958-0.073-6.958s6.619,3.604,12.662,0.3
	c3.356-2.012,8.113-6.265,7.889-14.654C62.946,21.605,54.389,20.822,51.592,21.215z M56.927,37.211
	c-2.73,3.739-7.332,5.029-10.282,2.876c-2.946-2.153-3.126-6.931-0.397-10.672c2.731-3.738,7.334-5.03,10.283-2.876
	C59.479,28.691,59.656,33.47,56.927,37.211z"/>
</svg>
