<?xml version="1.0" encoding="utf-8"?>
<!-- Generator: Adobe Illustrator 16.0.0, SVG Export Plug-In . SVG Version: 6.00 Build 0)  -->
<!DOCTYPE svg PUBLIC "-//W3C//DTD SVG 1.1//EN" "http://www.w3.org/Graphics/SVG/1.1/DTD/svg11.dtd">
<svg version="1.1" id="Слой_1" xmlns="http://www.w3.org/2000/svg" xmlns:xlink="http://www.w3.org/1999/xlink" x="0px" y="0px"
	 width="73.289px" height="73.289px" viewBox="0 0 73.289 73.289" enable-background="new 0 0 73.289 73.289" xml:space="preserve">
<circle fill="none" stroke="#FFFFFF" stroke-width="2" stroke-miterlimit="10" cx="36.645" cy="36.645" r="35.145"/>
<path fill="#FFFFFF" d="M32.669,29.292c0,0,3.498,30.282,3.722,31.497c0.224,1.217,1.598,1.365,2.416,1.116
	c2.154-0.525,2.149-1.69,2.149-1.69l-3.519-31.822c0,0,1.355-6.549,8.981-8.613c2.394-0.431,5.282-0.488,7.902,2.144
	c0.887,0.837,3.06-0.001,2.971-2.198c-0.09-2.197-4.082-5.975-11.78-4.272C37.814,17.157,34.11,23.55,34.11,23.55
	s-4.532-4.896-12.337-2.565c0,0-5.857,1.995-8.519,5.454c-1.041,1.558,0.744,4.395,2.945,2.831c2.204-1.564,5.327-3.899,8.792-4.353
	C28.812,24.416,32.283,27.22,32.669,29.292z"/>
</svg>
